{"title":"Caught In The Crossfire 2010 480p BRRip.H264.FEEL-FREE","uid":5694483,"size":1117736125,"categoryP":"other","categoryS":"other","magnet":"?xt=urn:btih:4dca6c6676a2cc7b026d74c29d2f9962b0dd9634&amp;dn=Caught+In+The+Crossfire+2010+480p+BRRip.H264.FEEL-FREE&amp;tr=udp%3A%2F%2Ftracker.openbittorrent.com%3A80&amp;tr=udp%3A%2F%2Fopen.demonii.com%3A1337&amp;tr=udp%3A%2F%2Ftracker.coppersurfer.tk%3A6969&amp;tr=udp%3A%2F%2Fexodus.desync.com%3A6969","seeders":0,"leechers":1,"uploader":"hiest","files":9,"time":1279256498,"description":"Genre:Crime \nLanguage:English\nIMDb:http://www.imdb.com/title/tt1449379/\nSource:BluRay-WiKi\nSubtitles: ROMANA\nEncoder: Tony2\n..........................................\nGeneral\nComplete name : Caught In The Crossfire 2010 480p BRRip.H264.FEEL-FREE\nFormat : MPEG-4\nFormat profile : Base Media\nCodec ID : isom\nFile size : 1.04 GiB\nDuration : 1h 24mn\nOverall bit rate : 1 758 Kbps\n.......................................... \nVideo\nID : 1\nFormat : AVC\nFormat/Info : Advanced Video Codec\nFormat profile : &lt;a class=&quot;__cf_email__&quot; href=&quot;/cdn-cgi/l/email-protection&quot; data-cfemail=&quot;2466455741484d4a416468110a15&quot;&gt;[email&amp;#160;protected]&lt;/a&gt;&lt;script cf-hash='f9e31' type=&quot;text/javascript&quot;&gt;\n/* &lt;![CDATA[ */!function(){try{var t=&quot;currentScript&quot;in document?document.currentScript:function(){for(var t=document.getElementsByTagName(&quot;script&quot;),e=t.length;e--;)if(t[e].getAttribute(&quot;cf-hash&quot;))return t[e]}();if(t&amp;&amp;t.previousSibling){var e,r,n,i,c=t.previousSibling,a=c.getAttribute(&quot;data-cfemail&quot;);if(a){for(e=&quot;&quot;,r=parseInt(a.substr(0,2),16),n=2;a.length-n;n+=2)i=parseInt(a.substr(n,2),16)^r,e+=String.fromCharCode(i);e=document.createTextNode(e),c.parentNode.replaceChild(e,c)}}}catch(u){}}();/* ]]&gt; */&lt;/script&gt;\nFormat settings, CABAC : No\nFormat settings, ReFrames : 1 frame\nCodec ID : avc1\nCodec ID/Info : Advanced Video Coding\nDuration : 1h 24mn\nBit rate mode : Variable\nBit rate : 1 548 Kbps\nWidth : 720 pixels\nHeight : 304 pixels\nDisplay aspect ratio : 2.35:1\nFrame rate mode : Constant\nFrame rate : 23.976 fps\nResolution : 24 bits\nColorimetry : 4:2:0\nScan type : Progressive\nBits/(Pixel*Frame) : 0.295\nStream size : 937 MiB (88%)\n..........................................\n\nAudio\nID : 2\nFormat : AAC\nFormat/Info : Advanced Audio Codec\nFormat version : Version 4\nFormat profile : LC\nFormat settings, SBR : No\nCodec ID : 40\nDuration : 1h 24mn\nBit rate mode : Variable\nBit rate : 206 Kbps\nChannel(s) : 6 channels\nChannel positions : Front: L C R, Rear: L R, LFE\nSampling rate : 48.0 KHz\nResolution : 16 bits\nStream size : 125 MiB (12%)\n..........................................\nPlot:\nTwo detectives investigating a gang-related find themselves targeted by both gang members and crooked cops\n...................................................\nScreenshots:\n &lt;a href=&quot;\nhttp://postimg.com/image/18000/17897.jpg&quot; rel=&quot;nofollow&quot; target=&quot;_NEW&quot;&gt;\nhttp://postimg.com/image/18000/17897.jpg&lt;/a&gt;\n &lt;a href=&quot;\nhttp://postimg.com/image/18000/17898.jpg&quot; rel=&quot;nofollow&quot; target=&quot;_NEW&quot;&gt;\nhttp://postimg.com/image/18000/17898.jpg&lt;/a&gt;\n............................................................","torrent":{"xt":"urn:btih:4dca6c6676a2cc7b026d74c29d2f9962b0dd9634","amp;dn":"Caught+In+The+Crossfire+2010+480p+BRRip.H264.FEEL-FREE","amp;tr":["udp%3A%2F%2Ftracker.openbittorrent.com%3A80","udp%3A%2F%2Fopen.demonii.com%3A1337","udp%3A%2F%2Ftracker.coppersurfer.tk%3A6969","udp%3A%2F%2Fexodus.desync.com%3A6969"],"infoHash":"4dca6c6676a2cc7b026d74c29d2f9962b0dd9634","infoHashBuffer":{"type":"Buffer","data":[77,202,108,102,118,162,204,123,2,109,116,194,157,47,153,98,176,221,150,52]},"announce":[],"urlList":[]}}